<svg xmlns="http://www.w3.org/2000/svg" width="48" height="48" viewBox="0 0 48 48" fill="black">
  <path d="M35.42,24.91c-0.02-2.75,1.18-4.83,3.61-6.36c-1.38-1.98-3.45-3.07-6.19-3.29c-2.59-0.21-5.4,1.53-6.44,1.53  c-1.08,0-2.68-1.52-4.41-1.48c-2.27,0.04-4.35,1.32-5.52,3.34c-2.36,4.09-0.6,10.13,1.69,13.44c1.12,1.62,2.46,3.44,4.21,3.37  c1.69-0.07,2.33-1.09,4.37-1.09c2.03,0,2.6,1.09,4.38,1.05c1.81-0.03,2.96-1.64,4.07-3.27c1.28-1.87,1.81-3.69,1.84-3.78  C37.01,28.85,35.44,28.11,35.42,24.91z M31.82,14.55c1.23-1.49,2.06-3.57,1.84-5.64c-1.78,0.07-3.93,1.19-5.21,2.68  c-1.14,1.32-2.14,3.44-1.87,5.47C28.52,17.15,30.58,16.05,31.82,14.55z"/>
</svg> 